<?xml version="1.0" encoding="UTF-8" standalone="no"?><!DOCTYPE svg PUBLIC "-//W3C//DTD SVG 1.1//EN" "http://www.w3.org/Graphics/SVG/1.1/DTD/svg11.dtd"><svg width="100%" height="100%" viewBox="0 0 64 64" version="1.1" xmlns="http://www.w3.org/2000/svg" xmlns:xlink="http://www.w3.org/1999/xlink" xml:space="preserve" xmlns:serif="http://www.serif.com/" style="fill-rule:evenodd;clip-rule:evenodd;stroke-linecap:round;stroke-linejoin:round;stroke-miterlimit:1.5;"><g id="Isolated-Hailshowers-Night" serif:id="Isolated Hailshowers Night"><g id="Partly-Cloudy-Night" serif:id="Partly Cloudy Night"><path id="Curve" d="M12.029,31.344c-3.918,-2.483 -6.521,-6.857 -6.521,-11.835c0,-7.727 6.273,-14 14,-14c5.376,0 10.048,3.037 12.393,7.487" style="fill:none;stroke:#fff;stroke-width:2px;"/><path id="Medium-cloud" serif:id="Medium cloud" d="M22.793,43.338c-5.976,0 -10.828,-4.852 -10.828,-10.829c0,-5.976 4.852,-10.829 10.828,-10.829c1.486,0 2.901,0.3 4.191,0.842c0.426,-6.972 6.223,-12.503 13.302,-12.503c7.356,0 13.328,5.972 13.328,13.327c0,1.165 -0.15,2.294 -0.431,3.371l0.468,0l0,0c4.591,0.015 8.314,3.733 8.314,8.311c0,4.577 -3.723,8.296 -8.314,8.31l0,0l-30.858,0Z" style="fill:none;stroke:#00a9ff;stroke-width:2px;"/></g><g id="Hail"><g id="Hailstone"><path id="Hail1" serif:id="Hail" d="M33.966,48l0.866,0.5l0,1l-0.866,0.5l-0.866,-0.5l0,-1l0.866,-0.5Z" style="fill:#fff;stroke:#fff;stroke-width:2px;"/></g><g id="Hailstone1" serif:id="Hailstone"><path id="Hail2" serif:id="Hail" d="M31.966,56l0.866,0.5l0,1l-0.866,0.5l-0.866,-0.5l0,-1l0.866,-0.5Z" style="fill:#fff;stroke:#fff;stroke-width:2px;"/></g><g id="Hailstone2" serif:id="Hailstone"><path id="Hail3" serif:id="Hail" d="M44.966,56l0.866,0.5l0,1l-0.866,0.5l-0.866,-0.5l0,-1l0.866,-0.5Z" style="fill:#fff;stroke:#fff;stroke-width:2px;"/></g><g id="Hailstone3" serif:id="Hailstone"><path id="Hail4" serif:id="Hail" d="M47.166,48l0.866,0.5l0,1l-0.866,0.5l-0.866,-0.5l0,-1l0.866,-0.5Z" style="fill:#fff;stroke:#fff;stroke-width:2px;"/></g><g id="Rain-Fast" serif:id="Rain Fast"><path id="Rain-Fast1" serif:id="Rain Fast" d="M38,60l3.215,-12" style="fill:none;stroke:#fff;stroke-width:2px;"/></g><g id="Rain-Fast2" serif:id="Rain Fast"><path id="Rain-Fast3" serif:id="Rain Fast" d="M25,60l3.215,-12" style="fill:none;stroke:#fff;stroke-width:2px;"/></g></g></g></svg>