<?xml version="1.0" encoding="UTF-8" standalone="no"?><!DOCTYPE svg PUBLIC "-//W3C//DTD SVG 1.1//EN" "http://www.w3.org/Graphics/SVG/1.1/DTD/svg11.dtd"><svg width="100%" height="100%" viewBox="0 0 64 64" version="1.1" xmlns="http://www.w3.org/2000/svg" xmlns:xlink="http://www.w3.org/1999/xlink" xml:space="preserve" xmlns:serif="http://www.serif.com/" style="fill-rule:evenodd;clip-rule:evenodd;stroke-linecap:round;stroke-linejoin:round;stroke-miterlimit:1.5;"><g id="Mostly-Cloudy-Light-Sleet-Day" serif:id="Mostly Cloudy Light Sleet Day"><g id="Mostly-Cloudy-Day" serif:id="Mostly Cloudy Day"><path id="Curve" d="M12.045,22.877c-0.465,-1.027 -0.724,-2.167 -0.724,-3.368c0,-4.514 3.665,-8.179 8.179,-8.179c2.209,0 4.214,0.877 5.686,2.302" style="fill:none;stroke:#ffd500;stroke-width:2px;"/><path id="Curve1" serif:id="Curve" d="M19.5,6.838l0,-4.829" style="fill:none;stroke:#ffd500;stroke-width:2px;"/><path id="Curve2" serif:id="Curve" d="M6.829,19.509l-4.829,0" style="fill:none;stroke:#ffd500;stroke-width:2px;"/><path id="Curve3" serif:id="Curve" d="M28.46,10.55l3.414,-3.415" style="fill:none;stroke:#ffd500;stroke-width:2px;"/><path id="Curve4" serif:id="Curve" d="M10.54,10.55l-3.414,-3.415" style="fill:none;stroke:#ffd500;stroke-width:2px;"/><path id="Cloud" d="M48.186,43.338l-30.857,0c-5.977,0 -10.829,-4.852 -10.829,-10.829c0,-5.976 4.852,-10.829 10.829,-10.829c1.485,0 2.901,0.3 4.19,0.842c0.426,-6.972 6.223,-12.503 13.302,-12.503c6.223,0 11.455,4.273 12.92,10.042" style="fill:none;stroke:#00a9ff;stroke-width:2px;"/><path id="Cloud1" serif:id="Cloud" d="M34.537,43.338c-4.183,0 -7.58,-3.397 -7.58,-7.58c0,-4.184 3.397,-7.58 7.58,-7.58c1.04,0 2.031,0.209 2.933,0.589c0.299,-4.881 4.357,-8.753 9.312,-8.753c5.149,0 9.33,4.181 9.33,9.33c0,0.815 -0.105,1.606 -0.302,2.359l0.328,0l0,0.001c3.213,0.01 5.819,2.612 5.819,5.817c0,3.204 -2.606,5.807 -5.819,5.817l0,0l-21.601,0Z" style="fill:none;stroke:#00a9ff;stroke-width:2px;"/></g><g id="Sleet"><path id="Drop-S" serif:id="Drop S" d="M30.268,53.041l1.746,3.733c0.185,0.37 0.354,0.735 0.354,1.167c0,1.159 -0.941,2.1 -2.1,2.1c-1.159,0 -2.1,-0.941 -2.1,-2.1c0,-0.432 0.171,-0.776 0.354,-1.167l-0.001,0l1.747,-3.733Z" style="fill:none;stroke:#fff;stroke-width:2px;"/><g id="Group"><path id="Curve5" serif:id="Curve" d="M35.099,48.041l0,7" style="fill:none;stroke:#fff;stroke-width:2px;"/><path id="Curve6" serif:id="Curve" d="M32.068,53.291l6.062,-3.5" style="fill:none;stroke:#fff;stroke-width:2px;"/><path id="Curve7" serif:id="Curve" d="M32.068,49.791l6.062,3.5" style="fill:none;stroke:#fff;stroke-width:2px;"/></g></g></g></svg>