<?xml version="1.0" encoding="UTF-8" standalone="no"?><!DOCTYPE svg PUBLIC "-//W3C//DTD SVG 1.1//EN" "http://www.w3.org/Graphics/SVG/1.1/DTD/svg11.dtd"><svg width="100%" height="100%" viewBox="0 0 64 64" version="1.1" xmlns="http://www.w3.org/2000/svg" xmlns:xlink="http://www.w3.org/1999/xlink" xml:space="preserve" xmlns:serif="http://www.serif.com/" style="fill-rule:evenodd;clip-rule:evenodd;stroke-linecap:round;stroke-linejoin:round;stroke-miterlimit:1.5;"><g id="Mostly-Cloudy-Moderate-Rain-Day" serif:id="Mostly Cloudy Moderate Rain Day"><g id="Mostly-Cloudy-Day" serif:id="Mostly Cloudy Day"><path id="Curve" d="M12.045,22.868c-0.465,-1.028 -0.724,-2.168 -0.724,-3.368c0,-4.514 3.665,-8.179 8.179,-8.179c2.209,0 4.214,0.877 5.686,2.302" style="fill:none;stroke:#ffd500;stroke-width:2px;"/><path id="Curve1" serif:id="Curve" d="M19.5,6.829l0,-4.829" style="fill:none;stroke:#ffd500;stroke-width:2px;"/><path id="Curve2" serif:id="Curve" d="M6.829,19.5l-4.829,0" style="fill:none;stroke:#ffd500;stroke-width:2px;"/><path id="Curve3" serif:id="Curve" d="M28.46,10.54l3.414,-3.414" style="fill:none;stroke:#ffd500;stroke-width:2px;"/><path id="Curve4" serif:id="Curve" d="M10.54,10.54l-3.414,-3.414" style="fill:none;stroke:#ffd500;stroke-width:2px;"/><path id="Cloud" d="M48.186,43.329l-30.857,0c-5.977,0 -10.829,-4.853 -10.829,-10.829c0,-5.977 4.852,-10.829 10.829,-10.829c1.485,0 2.901,0.3 4.19,0.842c0.426,-6.973 6.223,-12.504 13.302,-12.504c6.223,0 11.455,4.274 12.92,10.043" style="fill:none;stroke:#00a9ff;stroke-width:2px;"/><path id="Cloud1" serif:id="Cloud" d="M34.537,43.329c-4.183,0 -7.58,-3.397 -7.58,-7.58c0,-4.184 3.397,-7.581 7.58,-7.581c1.04,0 2.031,0.21 2.933,0.59c0.299,-4.881 4.357,-8.753 9.312,-8.753c5.149,0 9.33,4.18 9.33,9.33c0,0.815 -0.105,1.605 -0.302,2.359l0.328,0l0,0c3.213,0.01 5.819,2.613 5.819,5.817c0,3.205 -2.606,5.808 -5.819,5.818l0,0l-21.601,0Z" style="fill:none;stroke:#00a9ff;stroke-width:2px;"/></g><g id="Drop-S" serif:id="Drop S"><path id="Drop-S1" serif:id="Drop S" d="M40.243,48l2.993,6.4c0.318,0.635 0.607,1.26 0.607,2c0,1.987 -1.613,3.6 -3.6,3.6c-1.987,0 -3.6,-1.613 -3.6,-3.6c0,-0.74 0.293,-1.33 0.607,-2l-0.003,0l2.996,-6.4Z" style="fill:none;stroke:#fff;stroke-width:2px;"/></g><g id="Drop-S2" serif:id="Drop S"><path id="Drop-S3" serif:id="Drop S" d="M28.243,48l2.993,6.4c0.318,0.635 0.607,1.26 0.607,2c0,1.987 -1.613,3.6 -3.6,3.6c-1.987,0 -3.6,-1.613 -3.6,-3.6c0,-0.74 0.293,-1.33 0.607,-2l-0.003,0l2.996,-6.4Z" style="fill:none;stroke:#fff;stroke-width:2px;"/></g></g></svg>