<?xml version="1.0" encoding="UTF-8" standalone="no"?><!DOCTYPE svg PUBLIC "-//W3C//DTD SVG 1.1//EN" "http://www.w3.org/Graphics/SVG/1.1/DTD/svg11.dtd"><svg width="100%" height="100%" viewBox="0 0 64 64" version="1.1" xmlns="http://www.w3.org/2000/svg" xmlns:xlink="http://www.w3.org/1999/xlink" xml:space="preserve" xmlns:serif="http://www.serif.com/" style="fill-rule:evenodd;clip-rule:evenodd;stroke-linecap:round;stroke-linejoin:round;stroke-miterlimit:1.5;"><g id="Mostly-Clear-Day" serif:id="Mostly Clear Day"><circle cx="19.5" cy="19.491" r="8.179" style="fill:none;stroke:#ffd500;stroke-width:2px;"/><path d="M19.5,6.82l0,-4.829" style="fill:none;stroke:#ffd500;stroke-width:2px;"/><path d="M32.171,19.491l4.829,0" style="fill:none;stroke:#ffd500;stroke-width:2px;"/><path d="M19.5,32.162l0,4.829" style="fill:none;stroke:#ffd500;stroke-width:2px;"/><path d="M6.829,19.491l-4.829,0" style="fill:none;stroke:#ffd500;stroke-width:2px;"/><path d="M28.46,10.531l3.414,-3.415" style="fill:none;stroke:#ffd500;stroke-width:2px;"/><path d="M28.46,28.45l0.928,0.929" style="fill:none;stroke:#ffd500;stroke-width:2px;"/><path d="M10.54,28.45l-3.414,3.415" style="fill:none;stroke:#ffd500;stroke-width:2px;"/><path d="M10.54,10.531l-3.414,-3.415" style="fill:none;stroke:#ffd500;stroke-width:2px;"/><path id="Cloud-S" serif:id="Cloud S" d="M34.537,43.319c-4.183,0 -7.58,-3.396 -7.58,-7.58c0,-4.183 3.397,-7.58 7.58,-7.58c1.04,0 2.031,0.21 2.933,0.589c0.299,-4.88 4.357,-8.752 9.312,-8.752c5.149,0 9.33,4.18 9.33,9.329c0,0.815 -0.105,1.606 -0.302,2.36l0.328,0l0,0c3.213,0.01 5.819,2.613 5.819,5.817c0,3.205 -2.606,5.807 -5.819,5.817l0,0l-21.601,0Z" style="fill:none;stroke:#00a9ff;stroke-width:2px;"/></g></svg>