<?xml version="1.0" encoding="UTF-8" standalone="no"?><!DOCTYPE svg PUBLIC "-//W3C//DTD SVG 1.1//EN" "http://www.w3.org/Graphics/SVG/1.1/DTD/svg11.dtd"><svg width="100%" height="100%" viewBox="0 0 64 64" version="1.1" xmlns="http://www.w3.org/2000/svg" xmlns:xlink="http://www.w3.org/1999/xlink" xml:space="preserve" xmlns:serif="http://www.serif.com/" style="fill-rule:evenodd;clip-rule:evenodd;stroke-linecap:round;stroke-linejoin:round;stroke-miterlimit:1.5;"><g id="Mostly-Cloudy-Light-Rain-Night" serif:id="Mostly Cloudy Light Rain Night"><g id="Mostly-Cloudy-Night" serif:id="Mostly Cloudy Night"><path id="Curve" d="M7.848,27.268c-1.483,-2.221 -2.348,-4.89 -2.348,-7.759c0,-7.727 6.273,-14 14,-14c4.419,0 8.363,2.052 10.93,5.255" style="fill:none;stroke:#fff;stroke-width:2px;"/><path id="Cloud" d="M34.537,43.338c-4.183,0 -7.58,-3.397 -7.58,-7.58c0,-4.184 3.397,-7.58 7.58,-7.58c1.04,0 2.031,0.209 2.933,0.589c0.299,-4.881 4.357,-8.753 9.312,-8.753c5.149,0 9.33,4.181 9.33,9.33c0,0.815 -0.105,1.606 -0.302,2.359l0.328,0l0,0.001c3.213,0.01 5.819,2.612 5.819,5.817c0,3.204 -2.606,5.807 -5.819,5.817l0,0l-21.601,0Z" style="fill:none;stroke:#00a9ff;stroke-width:2px;"/><path id="Cloud1" serif:id="Cloud" d="M48.186,43.338l-30.857,0c-5.977,0 -10.829,-4.852 -10.829,-10.829c0,-5.976 4.852,-10.829 10.829,-10.829c1.485,0 2.901,0.3 4.19,0.842c0.426,-6.972 6.223,-12.503 13.302,-12.503c6.223,0 11.455,4.273 12.92,10.042" style="fill:none;stroke:#00a9ff;stroke-width:2px;"/></g><g id="Drop-S" serif:id="Drop S"><path id="Drop-S1" serif:id="Drop S" d="M34.2,48l2.993,6.4c0.318,0.635 0.607,1.26 0.607,2c0,1.987 -1.613,3.6 -3.6,3.6c-1.987,0 -3.6,-1.613 -3.6,-3.6c0,-0.74 0.294,-1.33 0.607,-2l-0.003,0l2.996,-6.4Z" style="fill:none;stroke:#fff;stroke-width:2px;"/></g></g></svg>