<?xml version="1.0" encoding="UTF-8" standalone="no"?><!DOCTYPE svg PUBLIC "-//W3C//DTD SVG 1.1//EN" "http://www.w3.org/Graphics/SVG/1.1/DTD/svg11.dtd"><svg width="100%" height="100%" viewBox="0 0 64 64" version="1.1" xmlns="http://www.w3.org/2000/svg" xmlns:xlink="http://www.w3.org/1999/xlink" xml:space="preserve" xmlns:serif="http://www.serif.com/" style="fill-rule:evenodd;clip-rule:evenodd;stroke-linecap:round;stroke-linejoin:round;stroke-miterlimit:1.5;"><g id="Mostly-Clear-Night" serif:id="Mostly Clear Night"><circle cx="19.5" cy="27.5" r="14" style="fill:none;stroke:#fff;stroke-width:2px;"/><path id="Cloud-S" serif:id="Cloud S" d="M34.537,51.329c-4.183,0 -7.58,-3.397 -7.58,-7.58c0,-4.184 3.397,-7.581 7.58,-7.581c1.04,0 2.031,0.21 2.933,0.59c0.299,-4.881 4.357,-8.753 9.312,-8.753c5.149,0 9.33,4.18 9.33,9.33c0,0.815 -0.105,1.605 -0.302,2.359l0.328,0l0,0c3.213,0.01 5.819,2.613 5.819,5.817c0,3.205 -2.606,5.808 -5.819,5.818l0,0l-21.601,0Z" style="fill:none;stroke:#00a9ff;stroke-width:2px;"/></g></svg>