<?xml version="1.0" encoding="UTF-8" standalone="no"?><!DOCTYPE svg PUBLIC "-//W3C//DTD SVG 1.1//EN" "http://www.w3.org/Graphics/SVG/1.1/DTD/svg11.dtd"><svg width="100%" height="100%" viewBox="0 0 64 64" version="1.1" xmlns="http://www.w3.org/2000/svg" xmlns:xlink="http://www.w3.org/1999/xlink" xml:space="preserve" xmlns:serif="http://www.serif.com/" style="fill-rule:evenodd;clip-rule:evenodd;stroke-linecap:round;stroke-linejoin:round;stroke-miterlimit:1.5;"><g id="Mostly-Cloudy-Moderate-Snow-Night" serif:id="Mostly Cloudy Moderate Snow Night"><g id="Mostly-Cloudy-Night" serif:id="Mostly Cloudy Night"><path id="Curve" d="M7.848,27.278c-1.483,-2.222 -2.348,-4.89 -2.348,-7.759c0,-7.727 6.273,-14 14,-14c4.419,0 8.363,2.052 10.93,5.254" style="fill:none;stroke:#fff;stroke-width:2px;"/><path id="Cloud" d="M34.537,43.347c-4.183,0 -7.58,-3.396 -7.58,-7.58c0,-4.183 3.397,-7.58 7.58,-7.58c1.04,0 2.031,0.21 2.933,0.589c0.299,-4.881 4.357,-8.752 9.312,-8.752c5.149,0 9.33,4.18 9.33,9.329c0,0.815 -0.105,1.606 -0.302,2.36l0.328,0l0,0c3.213,0.01 5.819,2.613 5.819,5.817c0,3.204 -2.606,5.807 -5.819,5.817l0,0l-21.601,0Z" style="fill:none;stroke:#00a9ff;stroke-width:2px;"/><path id="Cloud1" serif:id="Cloud" d="M48.186,43.347l-30.857,0c-5.977,0 -10.829,-4.852 -10.829,-10.829c0,-5.976 4.852,-10.828 10.829,-10.828c1.485,0 2.901,0.299 4.19,0.841c0.426,-6.972 6.223,-12.503 13.302,-12.503c6.223,0 11.455,4.273 12.92,10.043" style="fill:none;stroke:#00a9ff;stroke-width:2px;"/></g><g id="Snow-S" serif:id="Snow S"><g id="Group"><path id="Curve1" serif:id="Curve" d="M42.2,48l0,12" style="fill:none;stroke:#fff;stroke-width:2px;"/><path id="Curve2" serif:id="Curve" d="M37.004,57l10.392,-6" style="fill:none;stroke:#fff;stroke-width:2px;"/><path id="Curve3" serif:id="Curve" d="M37.004,51l10.392,6" style="fill:none;stroke:#fff;stroke-width:2px;"/></g></g><g id="Snow-S1" serif:id="Snow S"><g id="Group1" serif:id="Group"><path id="Curve4" serif:id="Curve" d="M26.2,48l0,12" style="fill:none;stroke:#fff;stroke-width:2px;"/><path id="Curve5" serif:id="Curve" d="M21.004,57l10.392,-6" style="fill:none;stroke:#fff;stroke-width:2px;"/><path id="Curve6" serif:id="Curve" d="M21.004,51l10.392,6" style="fill:none;stroke:#fff;stroke-width:2px;"/></g></g></g></svg>