<?xml version="1.0" encoding="UTF-8" standalone="no"?><!DOCTYPE svg PUBLIC "-//W3C//DTD SVG 1.1//EN" "http://www.w3.org/Graphics/SVG/1.1/DTD/svg11.dtd"><svg width="100%" height="100%" viewBox="0 0 64 64" version="1.1" xmlns="http://www.w3.org/2000/svg" xmlns:xlink="http://www.w3.org/1999/xlink" xml:space="preserve" xmlns:serif="http://www.serif.com/" style="fill-rule:evenodd;clip-rule:evenodd;stroke-linecap:round;stroke-linejoin:round;stroke-miterlimit:1.5;"><g id="Partly-Cloudy-Heavy-Rain-Night" serif:id="Partly Cloudy Heavy Rain Night"><g id="Partly-Cloudy-Night" serif:id="Partly Cloudy Night"><path id="Curve" d="M12.021,31.344c-3.918,-2.483 -6.521,-6.857 -6.521,-11.835c0,-7.727 6.273,-14 14,-14c5.376,0 10.048,3.037 12.394,7.487" style="fill:none;stroke:#fff;stroke-width:2px;"/><path id="Medium-cloud" serif:id="Medium cloud" d="M22.786,43.338c-5.977,0 -10.829,-4.852 -10.829,-10.829c0,-5.976 4.852,-10.829 10.829,-10.829c1.485,0 2.901,0.3 4.19,0.842c0.426,-6.972 6.224,-12.503 13.303,-12.503c7.355,0 13.327,5.972 13.327,13.327c0,1.165 -0.149,2.294 -0.43,3.371l0.468,0l0,0c4.59,0.015 8.313,3.733 8.313,8.311c0,4.577 -3.723,8.296 -8.313,8.31l0,0l-30.858,0Z" style="fill:none;stroke:#00a9ff;stroke-width:2px;"/></g><g id="Drop-S" serif:id="Drop S"><path id="Drop-S1" serif:id="Drop S" d="M37,48l2.993,6.4c0.318,0.635 0.607,1.26 0.607,2c0,1.987 -1.613,3.6 -3.6,3.6c-1.987,0 -3.6,-1.613 -3.6,-3.6c0,-0.74 0.294,-1.33 0.607,-2l-0.003,0l2.996,-6.4Z" style="fill:none;stroke:#fff;stroke-width:2px;"/></g><g id="Drop-S2" serif:id="Drop S"><path id="Drop-S3" serif:id="Drop S" d="M49,48l2.993,6.4c0.318,0.635 0.607,1.26 0.607,2c0,1.987 -1.613,3.6 -3.6,3.6c-1.987,0 -3.6,-1.613 -3.6,-3.6c0,-0.74 0.294,-1.33 0.607,-2l-0.003,0l2.996,-6.4Z" style="fill:none;stroke:#fff;stroke-width:2px;"/></g><g id="Drop-S4" serif:id="Drop S"><path id="Drop-S5" serif:id="Drop S" d="M25,48l2.993,6.4c0.318,0.635 0.607,1.26 0.607,2c0,1.987 -1.613,3.6 -3.6,3.6c-1.987,0 -3.6,-1.613 -3.6,-3.6c0,-0.74 0.294,-1.33 0.607,-2l-0.003,0l2.996,-6.4Z" style="fill:none;stroke:#fff;stroke-width:2px;"/></g></g></svg>