<?xml version="1.0" encoding="UTF-8" standalone="no"?><!DOCTYPE svg PUBLIC "-//W3C//DTD SVG 1.1//EN" "http://www.w3.org/Graphics/SVG/1.1/DTD/svg11.dtd"><svg width="100%" height="100%" viewBox="0 0 64 64" version="1.1" xmlns="http://www.w3.org/2000/svg" xmlns:xlink="http://www.w3.org/1999/xlink" xml:space="preserve" xmlns:serif="http://www.serif.com/" style="fill-rule:evenodd;clip-rule:evenodd;stroke-linecap:round;stroke-linejoin:round;stroke-miterlimit:1.5;"><g id="Partly-Cloudy-Night" serif:id="Partly Cloudy Night"><path id="Curve" d="M12.021,31.334c-3.918,-2.482 -6.521,-6.857 -6.521,-11.834c0,-7.727 6.273,-14 14,-14c5.376,0 10.048,3.037 12.394,7.487" style="fill:none;stroke:#fff;stroke-width:2px;"/><path id="Medium-cloud" serif:id="Medium cloud" d="M22.786,43.329c-5.977,0 -10.829,-4.853 -10.829,-10.829c0,-5.977 4.852,-10.829 10.829,-10.829c1.485,0 2.901,0.3 4.19,0.842c0.426,-6.973 6.224,-12.504 13.303,-12.504c7.355,0 13.327,5.972 13.327,13.328c0,1.164 -0.149,2.294 -0.43,3.371l0.468,0l0,0c4.59,0.014 8.313,3.733 8.313,8.31c0,4.578 -3.723,8.296 -8.313,8.311l0,0l-30.858,0Z" style="fill:none;stroke:#00a9ff;stroke-width:2px;"/></g></svg>