<?xml version="1.0" encoding="UTF-8" standalone="no"?><!DOCTYPE svg PUBLIC "-//W3C//DTD SVG 1.1//EN" "http://www.w3.org/Graphics/SVG/1.1/DTD/svg11.dtd"><svg width="100%" height="100%" viewBox="0 0 64 64" version="1.1" xmlns="http://www.w3.org/2000/svg" xmlns:xlink="http://www.w3.org/1999/xlink" xml:space="preserve" xmlns:serif="http://www.serif.com/" style="fill-rule:evenodd;clip-rule:evenodd;stroke-linecap:round;stroke-linejoin:round;stroke-miterlimit:1.5;"><g id="Partly-Cloudy-Heavy-Snow-Night" serif:id="Partly Cloudy Heavy Snow Night"><g id="Partly-Cloudy-Night" serif:id="Partly Cloudy Night"><path id="Curve" d="M12.021,31.353c-3.918,-2.483 -6.521,-6.857 -6.521,-11.834c0,-7.727 6.273,-14 14,-14c5.376,0 10.048,3.036 12.394,7.486" style="fill:none;stroke:#fff;stroke-width:2px;"/><path id="Medium-cloud" serif:id="Medium cloud" d="M22.786,43.347c-5.977,0 -10.829,-4.852 -10.829,-10.829c0,-5.976 4.852,-10.828 10.829,-10.828c1.485,0 2.901,0.299 4.19,0.841c0.426,-6.972 6.224,-12.503 13.303,-12.503c7.355,0 13.327,5.972 13.327,13.328c0,1.164 -0.149,2.294 -0.43,3.371l0.468,0l0,0c4.59,0.014 8.313,3.732 8.313,8.31c0,4.578 -3.723,8.296 -8.313,8.31l0,0l-30.858,0Z" style="fill:none;stroke:#00a9ff;stroke-width:2px;"/></g><g id="Snow-S" serif:id="Snow S"><g id="Group"><path id="Curve1" serif:id="Curve" d="M37,48l0,12" style="fill:none;stroke:#fff;stroke-width:2px;"/><path id="Curve2" serif:id="Curve" d="M31.804,57l10.392,-6" style="fill:none;stroke:#fff;stroke-width:2px;"/><path id="Curve3" serif:id="Curve" d="M31.804,51l10.392,6" style="fill:none;stroke:#fff;stroke-width:2px;"/></g></g><g id="Snow-S1" serif:id="Snow S"><g id="Group1" serif:id="Group"><path id="Curve4" serif:id="Curve" d="M53,48l0,12" style="fill:none;stroke:#fff;stroke-width:2px;"/><path id="Curve5" serif:id="Curve" d="M47.804,57l10.392,-6" style="fill:none;stroke:#fff;stroke-width:2px;"/><path id="Curve6" serif:id="Curve" d="M47.804,51l10.392,6" style="fill:none;stroke:#fff;stroke-width:2px;"/></g></g><g id="Snow-S2" serif:id="Snow S"><g id="Group2" serif:id="Group"><path id="Curve7" serif:id="Curve" d="M21,48l0,12" style="fill:none;stroke:#fff;stroke-width:2px;"/><path id="Curve8" serif:id="Curve" d="M15.804,57l10.392,-6" style="fill:none;stroke:#fff;stroke-width:2px;"/><path id="Curve9" serif:id="Curve" d="M15.804,51l10.392,6" style="fill:none;stroke:#fff;stroke-width:2px;"/></g></g></g></svg>