<?xml version="1.0" encoding="UTF-8" standalone="no"?><!DOCTYPE svg PUBLIC "-//W3C//DTD SVG 1.1//EN" "http://www.w3.org/Graphics/SVG/1.1/DTD/svg11.dtd"><svg width="100%" height="100%" viewBox="0 0 64 64" version="1.1" xmlns="http://www.w3.org/2000/svg" xmlns:xlink="http://www.w3.org/1999/xlink" xml:space="preserve" xmlns:serif="http://www.serif.com/" style="fill-rule:evenodd;clip-rule:evenodd;stroke-linecap:round;stroke-linejoin:round;stroke-miterlimit:1.5;"><g id="Scattered-Hailshowers-Night" serif:id="Scattered Hailshowers Night"><g id="Mostly-Cloudy-Night" serif:id="Mostly Cloudy Night"><path id="Curve" d="M7.856,27.268c-1.484,-2.221 -2.348,-4.89 -2.348,-7.759c0,-7.727 6.273,-14 14,-14c4.419,0 8.363,2.052 10.929,5.255" style="fill:none;stroke:#fff;stroke-width:2px;"/><path id="Cloud" d="M34.545,43.338c-4.184,0 -7.58,-3.397 -7.58,-7.58c0,-4.184 3.396,-7.58 7.58,-7.58c1.039,0 2.031,0.209 2.933,0.589c0.298,-4.881 4.356,-8.753 9.312,-8.753c5.149,0 9.329,4.181 9.329,9.33c0,0.815 -0.105,1.606 -0.301,2.359l0.327,0l0,0.001c3.214,0.01 5.82,2.612 5.82,5.817c0,3.204 -2.606,5.807 -5.82,5.817l0,0l-21.6,0Z" style="fill:none;stroke:#00a9ff;stroke-width:2px;"/><path id="Cloud1" serif:id="Cloud" d="M48.194,43.338l-30.858,0c-5.976,0 -10.828,-4.852 -10.828,-10.829c0,-5.976 4.852,-10.829 10.828,-10.829c1.486,0 2.901,0.3 4.19,0.842c0.427,-6.972 6.224,-12.503 13.303,-12.503c6.222,0 11.455,4.273 12.919,10.042" style="fill:none;stroke:#00a9ff;stroke-width:2px;"/></g><g id="Hail"><g id="Hailstone"><path id="Hail1" serif:id="Hail" d="M31.066,48l0.866,0.5l0,1l-0.866,0.5l-0.866,-0.5l0,-1l0.866,-0.5Z" style="fill:#fff;stroke:#fff;stroke-width:2px;"/></g><g id="Hailstone1" serif:id="Hailstone"><path id="Hail2" serif:id="Hail" d="M29.066,56l0.866,0.5l0,1l-0.866,0.5l-0.866,-0.5l0,-1l0.866,-0.5Z" style="fill:#fff;stroke:#fff;stroke-width:2px;"/></g><g id="Hailstone2" serif:id="Hailstone"><path id="Hail3" serif:id="Hail" d="M42.066,56l0.866,0.5l0,1l-0.866,0.5l-0.866,-0.5l0,-1l0.866,-0.5Z" style="fill:#fff;stroke:#fff;stroke-width:2px;"/></g><g id="Hailstone3" serif:id="Hailstone"><path id="Hail4" serif:id="Hail" d="M44.266,48l0.866,0.5l0,1l-0.866,0.5l-0.866,-0.5l0,-1l0.866,-0.5Z" style="fill:#fff;stroke:#fff;stroke-width:2px;"/></g><g id="Rain-Fast" serif:id="Rain Fast"><path id="Rain-Fast1" serif:id="Rain Fast" d="M35.1,60l3.215,-12" style="fill:none;stroke:#fff;stroke-width:2px;"/></g><g id="Rain-Fast2" serif:id="Rain Fast"><path id="Rain-Fast3" serif:id="Rain Fast" d="M22.1,60l3.215,-12" style="fill:none;stroke:#fff;stroke-width:2px;"/></g></g></g></svg>