<?xml version="1.0" encoding="UTF-8" standalone="no"?><!DOCTYPE svg PUBLIC "-//W3C//DTD SVG 1.1//EN" "http://www.w3.org/Graphics/SVG/1.1/DTD/svg11.dtd"><svg width="100%" height="100%" viewBox="0 0 64 64" version="1.1" xmlns="http://www.w3.org/2000/svg" xmlns:xlink="http://www.w3.org/1999/xlink" xml:space="preserve" xmlns:serif="http://www.serif.com/" style="fill-rule:evenodd;clip-rule:evenodd;stroke-linecap:round;stroke-linejoin:round;stroke-miterlimit:1.5;"><g id="Showers"><g id="Clouds"><path id="Cloud" d="M45.986,43.319l-30.857,0c-5.977,0 -10.829,-4.852 -10.829,-10.828c0,-5.977 4.852,-10.829 10.829,-10.829c1.485,0 2.901,0.299 4.19,0.842c0.426,-6.973 6.223,-12.504 13.302,-12.504c6.223,0 11.455,4.273 12.92,10.043" style="fill:none;stroke:#00a9ff;stroke-width:2px;"/><path id="Cloud1" serif:id="Cloud" d="M32.337,43.319c-4.183,0 -7.58,-3.396 -7.58,-7.58c0,-4.183 3.397,-7.58 7.58,-7.58c1.04,0 2.031,0.21 2.933,0.589c0.299,-4.88 4.357,-8.752 9.312,-8.752c5.149,0 9.33,4.18 9.33,9.329c0,0.815 -0.105,1.606 -0.302,2.36l0.328,0l0,0c3.213,0.01 5.819,2.613 5.819,5.817c0,3.205 -2.606,5.807 -5.819,5.817l0,0l-21.601,0Z" style="fill:none;stroke:#00a9ff;stroke-width:2px;"/></g><g id="Shower"><g id="Rain-Fast" serif:id="Rain Fast"><path id="Rain-Fast1" serif:id="Rain Fast" d="M30.4,60l3.215,-12" style="fill:none;stroke:#fff;stroke-width:2px;"/></g><g id="Rain-Fast2" serif:id="Rain Fast"><path id="Rain-Fast3" serif:id="Rain Fast" d="M38.4,60l3.215,-12" style="fill:none;stroke:#fff;stroke-width:2px;"/></g><g id="Rain-Fast4" serif:id="Rain Fast"><path id="Rain-Fast5" serif:id="Rain Fast" d="M22.4,60l3.215,-12" style="fill:none;stroke:#fff;stroke-width:2px;"/></g></g></g></svg>